<svg xmlns="http://www.w3.org/2000/svg" viewBox="0 0 503 503"><path d="M16.5 135.8l380-101.6c11.9-3.1 24.5 4 27.6 15.8l75.3 279.2c3.1 11.8-4 24-16.2 27.2L103.2 458a22.7 22.7 0 01-27.6-15.7L.7 163c-3.1-11.8 4-24 15.8-27.2z" fill="#E4E7E7"/><path d="M48.4 158.3l332.4-88.6c9-2.4 18.5 3.1 21.3 12.2L464.3 313c2.4 9-3.1 18.5-12.2 20.8l-332.4 88.7c-9 2.3-18.5-3.2-21.3-12.3l-62.2-231c-2.8-9.1 2.8-18.5 12.2-21z" fill="#208DB2"/><path d="M85.4 131.9h395.8a22.4 22.4 0 0122.5 22.4v293.5a22.4 22.4 0 01-22.5 22.4H85.4A22.4 22.4 0 0163 447.8V154.3A22.7 22.7 0 0185.4 132z" fill="#F3F3F3"/><path d="M111.8 163.4h343.8c9.5 0 17.4 7.9 17.4 17.3v241c0 9.5-8 17.4-17.4 17.4H111.8c-9.4 0-17.3-7.9-17.3-17.3v-241c0-9.5 7.5-17.4 17.3-17.4z" fill="#A3E0F5"/><path d="M94.5 180.7V265c4 .4 7.9.8 11.8.8a90.6 90.6 0 0089.8-102.4h-84.3c-9.8 0-17.3 7.9-17.3 17.3z" fill="#EFC75E"/><path d="M123.2 356.4c-9.8 0-19.7.8-28.7 2v63.4c0 9.4 7.9 17.3 17.3 17.3H243c.8-3.5 1.1-6.7 1.1-10.2 0-40.2-54-72.5-120.9-72.5z" fill="#3DB39E"/><path d="M397.7 321c-107.9 0-195.7 52.6-196.9 118h254.4c9.5 0 17.4-7.9 17.4-17.3V330c-23.3-5.5-48.5-9-74.9-9z" fill="#4BC2AD"/></svg>
